<svg width="49" height="62" viewBox="0 0 49 62" fill="none" xmlns="http://www.w3.org/2000/svg">
<rect width="49" height="62" rx="24.5" fill="#F5CB58"/>
<path d="M31.2251 21.0801C32.5593 26.5309 32.3394 32.922 29.4803 37.741C28.4393 39.504 29.5683 41.37 30.1694 43.3387C30.58 44.661 31.3131 46.0567 30.8292 47.3496C30.5913 47.9399 30.1877 48.4484 29.6672 48.8134C29.1467 49.1785 28.5317 49.3845 27.8968 49.4064C26.2178 49.5312 24.5319 49.5312 22.853 49.4064C15.6978 48.9656 22.9703 41.2083 20.9176 37.7557C19.1852 34.5348 18.302 30.9243 18.3517 27.2658C18.3517 25.2236 18.1171 22.0941 19.7006 20.522C22.0172 18.2301 26.152 18.2154 28.7765 19.4495M18.6596 30.6005C18.8062 32.4076 20.8589 32.6722 22.2518 32.2462C23.6447 31.8201 25.023 30.6152 26.6505 30.292C27.6183 30.0555 28.6387 30.1745 29.5264 30.6274C30.4142 31.0803 31.1105 31.8372 31.489 32.7605M25.7268 35.6252L34.1429 12.5M21.8413 46.409C24.0269 47.0981 26.371 47.0981 28.5566 46.409M18.293 27.427C17.9986 27.4862 17.699 27.5158 17.3987 27.5153C16.2321 27.5153 15.1132 27.0509 14.2883 26.2244C13.4634 25.3978 13 24.2767 13 23.1077C13 21.9387 13.4634 20.8176 14.2883 19.991C15.1132 19.1644 16.2321 18.7001 17.3987 18.7001C18.5652 18.7001 19.6841 19.1644 20.509 19.991C21.3339 20.8176 21.7973 21.9387 21.7973 23.1077M18.7329 22.3878C20.1856 23.0575 21.7595 23.4224 23.3581 23.4603C24.9567 23.4982 26.5461 23.2081 28.0287 22.608" stroke="#E95322" stroke-linecap="round" stroke-linejoin="round"/>
</svg>
