<svg width="49" height="62" viewBox="0 0 49 62" fill="none" xmlns="http://www.w3.org/2000/svg">
<rect width="49" height="62" rx="24.5" fill="#F1D586FF"/>
<path d="M29.82 27.7625C30.6127 27.2447 31.5224 26.9361 32.4651 26.8655C34.0104 26.7306 35.5457 27.2185 36.7333 28.222C37.9209 29.2254 38.6637 30.6623 38.7981 32.2164C38.9151 33.5406 38.5791 34.8651 37.8459 35.9712C37.1947 36.907 36.4612 37.782 35.6543 38.5858L35.4965 38.7416M17.9852 27.7623C17.1969 27.2469 16.2926 26.9384 15.3552 26.8652C14.5897 26.7964 13.8181 26.8805 13.085 27.1124C12.3518 27.3444 11.6714 27.7197 11.0829 28.2169C10.4944 28.7141 10.0094 29.3235 9.65577 30.0098C9.30211 30.6961 9.08677 31.4459 9.02213 32.2162C8.90795 33.538 9.23793 34.8601 9.95924 35.9709C10.6394 37.1329 11.6288 38.0807 12.8159 38.7073M25.6634 20.0247C27.4101 20.3165 29.0418 21.0907 30.3763 22.2611C31.7108 23.4315 32.6956 24.952 33.2208 26.6527M14.5843 26.6827C15.0977 25.1235 15.9924 23.7193 17.1861 22.5984C18.3798 21.4776 19.8343 20.676 21.4162 20.2678M20.9023 22.8825L20.3431 23.4602M27.3714 25.0564L26.4947 25.938M14.3576 31.517L13.4961 32.3987M28.7166 32.7787L27.976 33.5236M20.7058 30.5745L19.9652 31.3194M35.8659 31.9578L35.3217 32.5051M23.4718 17.0907C22.8745 17.0907 22.3017 17.3292 21.8793 17.7539C21.457 18.1787 21.2197 18.755 21.2197 19.3557C21.2242 19.5825 21.2598 19.8075 21.3255 20.0245C21.4556 20.5036 21.7396 20.9258 22.1333 21.2255C22.527 21.5252 23.0083 21.6857 23.502 21.6816C24.0993 21.6816 24.6722 21.4428 25.0945 21.018C25.5169 20.5932 25.7541 20.0173 25.7541 19.4166C25.7623 19.1115 25.7091 18.8076 25.5977 18.5237C25.4862 18.2398 25.3189 17.9816 25.1058 17.7643C24.8926 17.5471 24.638 17.3754 24.3572 17.2596C24.0764 17.1438 23.7752 17.0865 23.4718 17.0907ZM23.4718 17.0907C23.313 16.2164 23.4352 15.3757 23.767 14.552C24.0989 13.7283 24.6571 13.0165 25.3763 12.5M35.4965 38.7416C35.3096 40.8661 34.7343 42.9421 33.7952 44.8638C33.4654 45.7247 32.9698 46.5115 32.337 47.1793C31.7041 47.8471 30.9463 48.3826 30.1072 48.7551C28.2189 49.3364 26.631 49.5 24.2729 49.5C21.9147 49.5 20.1202 49.3747 18.1363 48.7551C17.2971 48.3826 16.5394 47.8471 15.9065 47.1793C15.2736 46.5115 14.7781 45.7247 14.4483 44.8638C13.3132 42.4933 12.7291 39.8942 12.7403 37.2631C12.7531 36.9017 12.85 36.5482 13.0233 36.2314C13.1965 35.9145 13.4413 35.643 13.7379 35.4386C14.1901 35.2492 14.6804 35.1697 15.1689 35.2067C15.6574 35.2436 16.1303 35.3963 16.5493 35.6517C17.3773 36.1753 18.3371 36.4496 19.3152 36.4422C21.3104 36.1685 22.2626 33.6905 24.4543 33.9946C26.268 34.253 27.2354 36.1989 28.9887 36.4422C29.9712 36.4475 30.9353 36.1734 31.7698 35.6517C32.1841 35.3917 32.6549 35.2363 33.1419 35.1992C33.6288 35.1622 34.1175 35.2443 34.566 35.4386C34.8652 35.6403 35.1119 35.9114 35.2855 36.2288C35.4591 36.5462 35.5545 36.901 35.5636 37.2631C35.5622 37.7576 35.5397 38.2509 35.4965 38.7416Z" stroke="#E95322" stroke-linecap="round" stroke-linejoin="round"/>
</svg>
