<svg width="19" height="22" viewBox="0 0 19 22" fill="none" xmlns="http://www.w3.org/2000/svg">
<path d="M5.74293 9.33633V5.03003C5.74566 4.11414 6.11571 3.23643 6.77236 2.58848C7.429 1.94053 8.31902 1.57488 9.24811 1.57129C10.1778 1.57398 11.0686 1.93927 11.726 2.58732C12.3834 3.23536 12.7539 4.11355 12.7567 5.03003V9.33633M17.4808 16.9686L16.4241 9.25466C16.324 8.61861 15.9935 8.03985 15.4938 7.62552C14.9942 7.21119 14.3591 6.9893 13.7063 7.00102H4.79324C4.14041 6.9893 3.50538 7.21119 3.00571 7.62552C2.50604 8.03985 2.17561 8.61861 2.07552 9.25466L1.01878 16.9686C0.9693 17.4112 1.01661 17.8592 1.15747 18.2824C1.29833 18.7055 1.52948 19.0941 1.83541 19.4218C2.14133 19.7495 2.51491 20.0087 2.93101 20.1821C3.3471 20.3556 3.79607 20.4392 4.24767 20.4273H14.2623C14.7131 20.4377 15.1609 20.3531 15.5757 20.179C15.9905 20.0049 16.3628 19.7453 16.6676 19.4178C16.9724 19.0902 17.2026 18.7023 17.3428 18.2799C17.4831 17.8575 17.5301 17.4104 17.4808 16.9686Z" stroke="#F8F8F8" stroke-width="1.17857" stroke-linecap="round" stroke-linejoin="round"/>
</svg>
