<svg width="41" height="41" viewBox="0 0 41 41" fill="none" xmlns="http://www.w3.org/2000/svg">
<rect y="0.324951" width="40.3" height="40.3" rx="15" fill="#F8F8F8"/>
<path d="M27.433 19.8434C27.6482 18.0629 27.1481 16.2697 26.0425 14.8576C24.9369 13.4454 23.3161 12.5298 21.536 12.3115M32.5857 20.3972C32.7771 18.8473 32.661 17.2748 32.2441 15.7698C31.8271 14.2648 31.1175 12.8568 30.1558 11.6264C29.1941 10.396 27.9992 9.36725 26.6394 8.59912C25.2797 7.831 23.7818 7.33851 22.2316 7.1499M25.6519 24.1543C25.4093 23.9509 25.1355 23.7878 24.8411 23.6713C23.1974 23.0643 21.8506 24.3891 20.3176 24.1144C18.6827 23.8087 17.3093 22.1738 16.5384 20.8048C16.0921 20.0893 15.9338 19.2312 16.0953 18.4035C16.5915 16.4408 18.1201 15.6166 17.5308 13.3748C17.0877 11.7355 15.3643 9.31649 13.6452 8.869C10.5704 8.06708 8.92671 11.0089 8.271 13.5387C5.9627 22.3997 12.4224 31.8279 21.4695 33.033C24.1278 33.3918 28.1729 33.0994 28.3989 29.6259C28.5274 27.6322 27.3665 25.767 25.9753 24.4688L25.6519 24.1543Z" stroke="#E95322" stroke-width="2" stroke-linecap="round" stroke-linejoin="round"/>
</svg>
