<svg width="41" height="41" viewBox="0 0 41 41" fill="none" xmlns="http://www.w3.org/2000/svg">
<rect y="0.324951" width="40.2987" height="40.2987" rx="12.9996" fill="#F8F8F8"/>
<path d="M28.8791 27.7861C29.3717 27.7237 29.8713 27.8229 30.3027 28.0689C30.734 28.3149 31.0738 28.6944 31.2709 29.1502C31.5121 29.707 31.5222 30.3369 31.2989 30.9013C31.0757 31.4656 30.6374 31.9181 30.0806 32.1593C29.8046 32.2793 29.5077 32.3437 29.2068 32.3488C28.906 32.3539 28.6071 32.2996 28.3272 32.189C28.0474 32.0785 27.7921 31.9138 27.576 31.7044C27.3598 31.4951 27.1871 31.2451 27.0677 30.969C26.9342 30.664 26.8693 30.3334 26.8776 30.0006C26.8859 29.6678 26.9672 29.3409 27.1158 29.043M17.2085 29.0503H27.1305M19.3526 26.104C19.0251 25.6758 18.6048 25.3273 18.1233 25.0846C17.6419 24.842 17.1117 24.7115 16.5726 24.703C14.484 24.703 12.7872 26.6475 12.7872 29.0466V29.2832H15.0052M33.1488 29.5161C33.1479 28.4608 32.7279 27.4491 31.9814 26.7033C31.2348 25.9574 30.2227 25.5384 29.1674 25.5384M19.3896 29.2832C19.4623 29.5141 19.4997 29.7547 19.5005 29.9967C19.5005 30.6039 19.2595 31.1864 18.8305 31.6161C18.4014 32.0458 17.8194 32.2877 17.2122 32.2887C16.6043 32.2887 16.0213 32.0472 15.5915 31.6174C15.1617 31.1876 14.9202 30.6046 14.9202 29.9967C14.9204 29.7543 14.9591 29.5135 15.0348 29.2832M30.624 25.8144L28.6425 18.4333C28.6425 18.4333 30.4613 18.3926 29.9511 15.8863M13.5302 26.4959V22.5552C13.5273 22.3927 13.5565 22.2313 13.616 22.0801C13.6756 21.9289 13.7644 21.791 13.8774 21.6743C13.9904 21.5575 14.1254 21.4642 14.2745 21.3997C14.4236 21.3351 14.584 21.3007 14.7465 21.2983H17.726C17.9645 21.2954 18.2005 21.346 18.4167 21.4464C18.633 21.5469 18.824 21.6946 18.9755 21.8787C19.3896 22.3925 21.9588 26.1928 21.9588 26.1928H25.5816C25.7692 26.1897 25.9542 26.1485 26.1253 26.0714C26.2964 25.9944 26.45 25.8833 26.5767 25.7449C26.7033 25.6065 26.8004 25.4436 26.8619 25.2664C26.9235 25.0892 26.9482 24.9012 26.9346 24.7141L26.0215 17.3206C26.0085 17.2064 26.0197 17.0908 26.0545 16.9813C26.0892 16.8717 26.1466 16.7708 26.223 16.6849C26.2994 16.5991 26.3931 16.5304 26.4979 16.4832C26.6027 16.436 26.7162 16.4115 26.8311 16.4112H27.5704M25.7886 14.7735H24.7794M22.9791 26.1928V22.6106C22.9791 21.6792 22.6091 20.7859 21.9505 20.1273C21.2919 19.4687 20.3986 19.0987 19.4672 19.0987H16.0847M12.192 32.3515H17.2085M22.4763 32.3515H28.8865M10.7096 26.995H13.0312M7.14966 23.4683H10.4915M22.8054 11.6017C22.5236 11.8644 22.1783 12.0491 21.8035 12.1378C21.2362 12.2658 20.6413 12.1659 20.1469 11.8596C19.6526 11.5533 19.2983 11.0651 19.1604 10.5001C19.0322 9.93331 19.1316 9.33885 19.4371 8.84456C19.7427 8.35027 20.23 7.99565 20.7943 7.85693C21.0832 7.79008 21.3824 7.78181 21.6745 7.8326C21.9666 7.8834 22.2455 7.99224 22.4948 8.15267C22.7793 8.32738 23.0147 8.57164 23.1787 8.86245C23.3229 9.1397 23.382 9.4835 23.6371 9.68682C24.0475 10.0158 24.6574 9.8199 25.0751 9.61288M22.0032 16.7476L20.7906 19.3612M25.5114 14.7587H24.65C24.4052 14.7592 24.1664 14.6827 23.9674 14.5401C23.7684 14.3975 23.6193 14.1959 23.541 13.964C23.3783 13.5913 23.1362 13.2586 22.8316 12.9892C22.5271 12.7197 22.1674 12.52 21.7777 12.4039C20.7476 11.994 19.6025 11.9782 18.5615 12.3596C17.7136 12.6969 17.0075 13.3156 16.5616 14.1118C16.2368 14.6965 16.0663 15.3542 16.0662 16.023V19.0876H19.3526M21.005 14.7587C21.005 14.7587 21.5411 18.6366 26.0141 17.413M23.5706 9.63137C23.5706 9.63137 21.2564 10.3264 19.3193 9.04359M12.0294 14.9547H15.2529C15.4735 14.9547 15.6851 15.0423 15.8411 15.1983C15.997 15.3543 16.0847 15.5658 16.0847 15.7864V20.4665C16.0847 20.6871 15.997 20.8987 15.8411 21.0547C15.6851 21.2107 15.4735 21.2983 15.2529 21.2983H9.65235C9.43175 21.2983 9.22019 21.2107 9.0642 21.0547C8.90822 20.8987 8.82059 20.6871 8.82059 20.4665V18.1524C8.82352 17.3033 9.16288 16.4899 9.76432 15.8906C10.3658 15.2912 11.1803 14.9547 12.0294 14.9547Z" stroke="#E95322" stroke-width="1.29996" stroke-linecap="round" stroke-linejoin="round"/>
</svg>
