<svg width="35" height="31" viewBox="0 0 35 31" fill="none" xmlns="http://www.w3.org/2000/svg">
<path d="M28.7189 10.6574V23.7796C28.7189 25.1959 28.1563 26.5542 27.1548 27.5556C26.1533 28.5571 24.795 29.1198 23.3787 29.1198H21.1046V24.1312C21.1046 23.1752 20.7249 22.2582 20.0489 21.5822C19.3729 20.9062 18.456 20.5265 17.5 20.5265C16.544 20.5265 15.6271 20.9062 14.9511 21.5822C14.2751 22.2582 13.8953 23.1752 13.8953 24.1312V29.1198H11.6213C10.205 29.1198 8.84667 28.5571 7.84519 27.5556C6.8437 26.5542 6.28107 25.1959 6.28107 23.7796V10.6574M33 15.3421L23.0405 4.44358C22.3374 3.67369 21.4816 3.0587 20.5277 2.63798C19.5738 2.21725 18.5426 2 17.5 2C16.4574 2 15.4262 2.21725 14.4723 2.63798C13.5184 3.0587 12.6626 3.67369 11.9595 4.44358L2 15.3421" stroke="#E95322" stroke-width="2.22509" stroke-linecap="round" stroke-linejoin="round"/>
</svg>
