<svg width="26" height="26" viewBox="0 0 26 26" fill="none" xmlns="http://www.w3.org/2000/svg">
<rect width="26" height="26" rx="10" fill="white"/>
<path d="M16.377 11.3401C16.8102 11.0572 17.3073 10.8885 17.8224 10.85C18.6668 10.7763 19.5058 11.0429 20.1547 11.5912C20.8037 12.1395 21.2096 12.9247 21.2831 13.774C21.347 14.4975 21.1634 15.2213 20.7627 15.8257C20.4069 16.3371 20.0061 16.8152 19.5651 17.2545L19.4789 17.3396M9.9099 11.34C9.47914 11.0584 8.98502 10.8898 8.47277 10.8498C8.05444 10.8122 7.63285 10.8581 7.23221 10.9849C6.83157 11.1117 6.45978 11.3167 6.1382 11.5884C5.81662 11.8601 5.55159 12.1931 5.35834 12.5682C5.16509 12.9432 5.04742 13.3529 5.01209 13.7738C4.9497 14.4961 5.13001 15.2186 5.52417 15.8256C5.89583 16.4605 6.4365 16.9785 7.0852 17.3208M14.1057 7.11182C15.0601 7.27127 15.9518 7.69436 16.681 8.33391C17.4102 8.97345 17.9484 9.80436 18.2354 10.7337M8.05154 10.7501C8.33208 9.89807 8.82094 9.13075 9.47324 8.51825C10.1255 7.90575 10.9204 7.46771 11.7848 7.24465M11.504 8.67349L11.1984 8.98915M15.039 9.86137L14.5599 10.3432M7.92765 13.3917L7.45687 13.8735M15.7741 14.0812L15.3693 14.4882M11.3966 12.8767L10.9919 13.2838M19.6807 13.6326L19.3834 13.9317M12.9081 5.50858C12.5817 5.50858 12.2686 5.63887 12.0379 5.87099C11.8071 6.1031 11.6774 6.41802 11.6774 6.74628C11.6799 6.87021 11.6993 6.99316 11.7352 7.11173C11.8063 7.37351 11.9615 7.60422 12.1767 7.768C12.3918 7.93178 12.6548 8.0195 12.9246 8.01725C13.251 8.01725 13.564 7.88675 13.7948 7.65464C14.0256 7.42252 14.1552 7.10781 14.1552 6.77954C14.1597 6.61282 14.1306 6.44674 14.0697 6.2916C14.0088 6.13647 13.9174 5.99537 13.8009 5.87667C13.6844 5.75796 13.5453 5.66412 13.3919 5.60086C13.2384 5.53759 13.0739 5.50628 12.9081 5.50858ZM12.9081 5.50858C12.8213 5.03082 12.888 4.57141 13.0694 4.12129C13.2507 3.67118 13.5557 3.28224 13.9487 3M19.4789 17.3396C19.3768 18.5005 19.0624 19.635 18.5492 20.6851C18.369 21.1555 18.0982 21.5854 17.7524 21.9504C17.4065 22.3153 16.9925 22.6079 16.5339 22.8115C15.5021 23.1291 14.6344 23.2185 13.3458 23.2185C12.0572 23.2185 11.0766 23.15 9.99249 22.8115C9.53394 22.6079 9.11986 22.3153 8.77403 21.9504C8.4282 21.5854 8.15741 21.1555 7.9772 20.6851C7.35691 19.3897 7.03775 17.9694 7.0439 16.5317C7.05087 16.3342 7.10383 16.141 7.19851 15.9679C7.29319 15.7948 7.42694 15.6464 7.58902 15.5347C7.83613 15.4312 8.10403 15.3878 8.37097 15.408C8.63791 15.4282 8.89634 15.5116 9.12526 15.6511C9.57776 15.9373 10.1022 16.0872 10.6367 16.0831C11.727 15.9336 12.2473 14.5795 13.4449 14.7456C14.436 14.8868 14.9646 15.9502 15.9227 16.0831C16.4596 16.086 16.9865 15.9362 17.4425 15.6511C17.6689 15.509 17.9261 15.4242 18.1922 15.4039C18.4583 15.3837 18.7253 15.4285 18.9704 15.5347C19.1339 15.6449 19.2688 15.793 19.3636 15.9665C19.4585 16.1399 19.5106 16.3338 19.5156 16.5317C19.5148 16.8019 19.5025 17.0715 19.4789 17.3396Z" stroke="#E95322" stroke-linecap="round" stroke-linejoin="round"/>
</svg>
