<svg width="26" height="26" viewBox="0 0 26 26" fill="none" xmlns="http://www.w3.org/2000/svg">
<rect width="26" height="26" rx="10" fill="white"/>
<path d="M16.959 7.49322C17.6881 10.3476 17.5679 13.6945 16.0056 16.2181C15.4367 17.1414 16.0537 18.1186 16.3822 19.1495C16.6065 19.842 17.0071 20.5729 16.7427 21.2499C16.6127 21.5591 16.3921 21.8253 16.1077 22.0165C15.8233 22.2077 15.4872 22.3155 15.1403 22.327C14.2228 22.3924 13.3016 22.3924 12.3841 22.327C8.47423 22.0962 12.4482 18.0339 11.3265 16.2258C10.3799 14.5391 9.89727 12.6484 9.92441 10.7325C9.92441 9.66305 9.79622 8.02419 10.6615 7.20094C11.9274 6.0007 14.1868 5.99302 15.621 6.6393M10.0927 12.4788C10.1728 13.4252 11.2945 13.5637 12.0556 13.3406C12.8168 13.1175 13.5699 12.4865 14.4592 12.3173C14.9881 12.1934 15.5457 12.2557 16.0308 12.4929C16.5159 12.7301 16.8964 13.1264 17.1032 13.61M13.9545 15.1101L18.5534 3M11.8313 20.7574C13.0256 21.1182 14.3065 21.1182 15.5008 20.7574M9.89236 10.817C9.73145 10.8479 9.56773 10.8634 9.40362 10.8632C8.76614 10.8632 8.15477 10.62 7.70401 10.1871C7.25324 9.75427 7 9.16716 7 8.555C7 7.94284 7.25324 7.35574 7.70401 6.92287C8.15477 6.49001 8.76614 6.24684 9.40362 6.24684C10.0411 6.24684 10.6525 6.49001 11.1032 6.92287C11.554 7.35574 11.8072 7.94284 11.8072 8.555M10.1327 8.17801C10.9265 8.52871 11.7866 8.7198 12.6601 8.73965C13.5337 8.75949 14.4022 8.6076 15.2124 8.29334" stroke="#E95322" stroke-linecap="round" stroke-linejoin="round"/>
</svg>
