<svg width="41" height="41" viewBox="0 0 41 41" fill="none" xmlns="http://www.w3.org/2000/svg">
<rect y="0.324951" width="40.3" height="40.3" rx="15" fill="#F8F8F8"/>
<path d="M28.8108 12.089C29.1013 12.2116 29.3853 12.3491 29.6617 12.501C29.7755 12.5618 29.886 12.6286 29.9927 12.7013C32.4491 14.2413 33.0729 17.2021 33.1499 19.7431C33.1499 20.1282 33.1499 20.5132 33.1499 20.8982V32.5024L28.1447 29.611H25.0992C24.0771 29.7327 23.0485 29.7931 22.0191 29.7919C20.9166 29.801 19.8146 29.7406 18.7196 29.611C15.9976 29.2799 13.3294 28.4251 11.9626 26.4539M28.2448 11.3229C27.6588 10.5176 26.8946 9.85869 26.0118 9.39781C24.3646 8.56796 22.569 8.07328 20.7293 7.94245C19.8553 7.85775 18.8891 7.8039 17.8842 7.80005C15.4355 7.80005 12.7828 8.06955 10.6575 9.23614C10.5436 9.29689 10.433 9.36373 10.3263 9.43635C7.86988 10.9764 7.24627 13.9372 7.16927 16.4782C7.16927 16.8633 7.1499 17.2483 7.1499 17.6333V29.2414L12.1551 26.3499C12.1551 26.3499 17.2951 26.527 18.2961 26.5309C19.3987 26.54 20.5006 26.4795 21.5956 26.3499C25.1377 25.9226 28.5682 24.5982 29.2227 21.0984C29.4748 19.7409 29.6036 18.3633 29.6077 16.9825C29.6077 14.8996 29.2689 12.7782 28.2448 11.3229Z" stroke="#E95322" stroke-width="2" stroke-linecap="round" stroke-linejoin="round"/>
</svg>
