<svg width="32" height="33" viewBox="0 0 32 33" fill="none" xmlns="http://www.w3.org/2000/svg">
<rect y="0.258057" width="32" height="32" rx="15" fill="#F8F8F8"/>
<path d="M15.5334 16.0001H5.6786M8.2086 18.6565L6.25986 17.1777C6.07882 17.0397 5.93204 16.8618 5.83102 16.6578C5.73001 16.4538 5.67749 16.2292 5.67749 16.0016C5.67749 15.7739 5.73001 15.5494 5.83102 15.3454C5.93204 15.1414 6.07882 14.9634 6.25986 14.8254L8.2086 13.3436M21.9547 9.50951V22.4906M11.9522 20.1203C13.7594 26.8458 18.8585 26.3127 18.8585 26.3127C18.8585 26.3127 23.9787 26.8458 25.7647 20.1203C26.4665 17.4183 26.4665 14.5818 25.7647 11.8798C23.9727 5.15432 18.8585 5.68748 18.8585 5.68748C18.8585 5.68748 13.7383 5.15432 11.9522 11.8798" stroke="#E95322" stroke-width="2" stroke-linecap="round" stroke-linejoin="round"/>
</svg>
