<svg width="26" height="26" viewBox="0 0 26 26" fill="none" xmlns="http://www.w3.org/2000/svg">
<rect width="26" height="26" rx="10" fill="white"/>
<path d="M10.1324 16.4436C9.6901 17.559 9.35271 18.7175 9.1251 19.9023C8.96561 20.7869 8.8397 22.2466 9.57 22.8836C9.71636 23.0315 9.8975 23.1358 10.0948 23.1855C10.292 23.2352 10.4983 23.2286 10.6924 23.1665C10.8865 23.1043 11.0613 22.9887 11.1989 22.8317C11.3366 22.6747 11.4321 22.482 11.4755 22.2732C11.5846 21.5125 11.3748 18.1243 11.3496 17.2485C11.3496 16.6735 11.3496 16.0897 11.3496 15.4793C11.3496 12.2063 11.2405 6.75726 11.2321 3.48422C11.2252 3.38508 11.1917 3.28989 11.1353 3.21016C11.079 3.13043 11.0022 3.06946 10.914 3.03415C10.8259 2.99883 10.7299 2.99064 10.6376 3.01082C10.5452 3.031 10.4602 3.07862 10.3926 3.14796C8.21014 5.93447 7.27837 9.56146 8.62984 12.9937C8.85809 13.6156 9.22905 14.168 9.70954 14.6018C10.19 15.0356 10.765 15.337 11.3832 15.4793M14.9172 11.6225C14.8164 13.5333 14.4303 15.4086 14.1785 17.3016C13.952 18.5135 13.8423 19.7464 13.8511 20.9815C13.9182 21.928 14.2456 23.2019 15.3537 23.2107C15.6573 23.2204 15.9545 23.1172 16.1931 22.919C16.4602 22.6348 16.6438 22.2752 16.7219 21.8838C16.8553 21.3053 16.9035 20.7086 16.8646 20.1146C16.8646 19.1681 16.6548 18.2482 16.5289 17.3193C16.277 15.4263 15.8909 13.551 15.7902 11.6402M14.5982 3.34253V7.76555M16.1427 7.73899V3.31596M13.2299 3.34253V9.40216C13.2321 9.99501 13.4566 10.563 13.8544 10.9822C14.2522 11.4014 14.7911 11.6379 15.3537 11.6402C15.9162 11.6379 16.4551 11.4014 16.8529 10.9822C17.2507 10.563 17.4752 9.99501 17.4774 9.40216V3.34253" stroke="#E95322" stroke-linecap="round" stroke-linejoin="round"/>
</svg>
