<svg width="41" height="41" viewBox="0 0 41 41" fill="none" xmlns="http://www.w3.org/2000/svg">
<rect y="0.324951" width="40.3" height="40.3" rx="15" fill="#F8F8F8"/>
<path d="M15.5469 17.8562V11.9188C15.5506 10.656 16.0536 9.44578 16.9461 8.55239C17.8386 7.65901 19.0483 7.15485 20.3111 7.1499C21.5747 7.15362 22.7854 7.65727 23.679 8.55079C24.5725 9.44431 25.0761 10.6551 25.0799 11.9188V17.8562M31.5008 28.3795L30.0646 17.7436C29.9285 16.8667 29.4793 16.0687 28.8002 15.4974C28.121 14.9261 27.2579 14.6202 26.3706 14.6364H14.2561C13.3688 14.6202 12.5057 14.9261 11.8265 15.4974C11.1474 16.0687 10.6983 16.8667 10.5623 17.7436L9.12596 28.3795C9.0587 28.9898 9.12301 29.6075 9.31446 30.191C9.50591 30.7744 9.82009 31.3101 10.2359 31.7619C10.6517 32.2137 11.1595 32.5712 11.725 32.8103C12.2906 33.0495 12.9008 33.1648 13.5146 33.1484H27.1263C27.739 33.1627 28.3476 33.046 28.9114 32.806C29.4753 32.5659 29.9813 32.208 30.3955 31.7564C30.8098 31.3048 31.1227 30.7699 31.3133 30.1875C31.5039 29.6051 31.5678 28.9886 31.5008 28.3795Z" stroke="#E95322" stroke-width="2" stroke-linecap="round" stroke-linejoin="round"/>
</svg>
