<svg width="24" height="34" viewBox="0 0 24 34" fill="none" xmlns="http://www.w3.org/2000/svg">
<path d="M1.3853 20.8247C2.11652 19.0022 2.38974 17.0328 2.18176 15.0841C2.0921 14.2838 2.11112 13.4753 2.23832 12.68C2.62597 10.407 3.81929 8.34286 5.60624 6.85413C7.2806 5.45918 9.37464 4.65406 11.5574 4.55815C10.8026 4.36373 10.2456 3.68759 10.2456 2.88336C10.2456 1.92735 11.0327 1.15234 12.0035 1.15234C12.9744 1.15234 13.7615 1.92735 13.7615 2.88336C13.7615 3.68808 13.2038 4.36455 12.4483 4.5585C14.6282 4.65603 16.7192 5.46089 18.3915 6.85413C20.1784 8.34286 21.3717 10.407 21.7593 12.68C21.8865 13.4753 21.9056 14.2838 21.8159 15.0841C21.6127 17.0328 21.8859 19.001 22.6124 20.8247C22.9089 21.5137 23.0382 22.2614 22.9902 23.0083C22.9422 23.7552 22.7181 24.4807 22.3357 25.1275C21.9534 25.7742 21.4232 26.3244 20.7873 26.7343C20.1514 27.1442 19.4273 27.4025 18.6723 27.4889C14.2388 27.9777 9.76363 27.9777 5.33003 27.4889C4.57513 27.4023 3.85105 27.1438 3.21514 26.734C2.57922 26.3241 2.04889 25.7742 1.66617 25.1276C1.28345 24.481 1.05884 23.7556 1.01009 23.0088C0.961334 22.2619 1.0898 21.5142 1.3853 20.8247Z" fill="#F8F8F8"/>
<path d="M13.2242 30.6956C13.1756 31.0971 12.9792 31.4672 12.6722 31.7356C12.3651 32.0041 11.9688 32.1523 11.5582 32.1523C11.1475 32.1523 10.7512 32.0041 10.4442 31.7356C10.1371 31.4672 9.94075 31.0971 9.89217 30.6956M1.3853 20.8247C2.11652 19.0022 2.38974 17.0328 2.18176 15.0841C2.0921 14.2838 2.11112 13.4753 2.23832 12.68C2.62597 10.407 3.81929 8.34286 5.60624 6.85412C7.39319 5.36539 9.65814 4.54846 11.9989 4.54846C14.3396 4.54846 16.6045 5.36539 18.3915 6.85412C20.1784 8.34286 21.3717 10.407 21.7593 12.68C21.8865 13.4753 21.9056 14.2838 21.8159 15.0841C21.6127 17.0328 21.8859 19.001 22.6124 20.8247C22.9089 21.5137 23.0382 22.2614 22.9902 23.0083C22.9422 23.7552 22.7181 24.4807 22.3357 25.1275C21.9534 25.7742 21.4232 26.3244 20.7873 26.7343C20.1514 27.1442 19.4273 27.4025 18.6723 27.4889C14.2388 27.9777 9.76363 27.9777 5.33003 27.4889C4.57513 27.4023 3.85105 27.1438 3.21514 26.734C2.57922 26.3241 2.04889 25.7742 1.66617 25.1276C1.28345 24.481 1.05884 23.7556 1.01009 23.0088C0.961334 22.2619 1.0898 21.5142 1.3853 20.8247ZM13.7615 2.88336C13.7615 3.83937 12.9744 4.61438 12.0035 4.61438C11.0327 4.61438 10.2456 3.83937 10.2456 2.88336C10.2456 1.92735 11.0327 1.15234 12.0035 1.15234C12.9744 1.15234 13.7615 1.92735 13.7615 2.88336Z" stroke="#F8F8F8" stroke-width="2" stroke-linecap="round" stroke-linejoin="round"/>
</svg>
