<svg width="41" height="41" viewBox="0 0 41 41" fill="none" xmlns="http://www.w3.org/2000/svg">
<rect y="0.324951" width="40.2987" height="40.2987" rx="12.9996" fill="#F8F8F8"/>
<path d="M20.1552 10.8786C20.1552 10.8786 19.5965 11.343 19.0184 12.1703M17.7881 16.5628C17.5973 14.6903 18.3219 13.1669 19.0184 12.1703M19.0184 12.1703C19.689 11.2139 20.5216 10.4735 21.3732 9.91023M21.3732 9.91023C22.8725 8.91854 24.4304 8.47578 25.2668 8.36936C26.2445 8.33048 27.22 8.49038 28.1342 8.83931C29.0484 9.18824 29.8824 9.71896 30.5856 10.3994C33.6266 13.3796 34.0732 18.9988 31.3244 22.3159C28.5757 25.6331 24.0691 27.1029 21.296 30.4768C20.8468 31.0136 20.4637 31.6024 20.1551 32.2308C19.848 31.6026 19.4663 31.0137 19.0184 30.4768C16.2412 27.1029 11.7627 25.6656 8.9856 22.3159C6.20847 18.9663 6.68363 13.3836 9.72467 10.3994C11.3538 8.45059 15.08 5.92931 21.3732 9.91023Z" stroke="#E95322" stroke-width="1.29996" stroke-linecap="round" stroke-linejoin="round"/>
</svg>
