<svg width="71" height="71" viewBox="0 0 71 71" fill="none" xmlns="http://www.w3.org/2000/svg">
<path d="M35.5 0L40.9713 7.99388L49.0853 2.70228L51.081 12.1814L60.6023 10.3977L58.8186 19.919L68.2977 21.9147L63.0061 30.0287L71 35.5L63.0061 40.9713L68.2977 49.0853L58.8186 51.081L60.6023 60.6023L51.081 58.8186L49.0853 68.2977L40.9713 63.0061L35.5 71L30.0287 63.0061L21.9147 68.2977L19.919 58.8186L10.3977 60.6023L12.1814 51.081L2.70228 49.0853L7.99388 40.9713L0 35.5L7.99388 30.0287L2.70228 21.9147L12.1814 19.919L10.3977 10.3977L19.919 12.1814L21.9147 2.70228L30.0287 7.99388L35.5 0Z" fill="#E95322"/>
</svg>
