<svg width="41" height="41" viewBox="0 0 41 41" fill="none" xmlns="http://www.w3.org/2000/svg">
<rect x="0.126709" y="0.324951" width="40.2987" height="40.2987" rx="12.9996" fill="#F8F8F8"/>
<path d="M15.673 17.8558V11.9185C15.6767 10.6557 16.1796 9.44559 17.0721 8.55223C17.9646 7.65887 19.1742 7.15473 20.437 7.14978C21.7005 7.15349 22.9112 7.65713 23.8047 8.55062C24.6982 9.44411 25.2019 10.6549 25.2056 11.9185V17.8558M31.6263 28.3787L30.1901 17.7432C30.0541 16.8662 29.6049 16.0683 28.9258 15.497C28.2466 14.9258 27.3835 14.6198 26.4963 14.636H14.3822C13.4949 14.6198 12.6318 14.9258 11.9527 15.497C11.2736 16.0683 10.8245 16.8662 10.6884 17.7432L9.25218 28.3787C9.18492 28.989 9.24923 29.6067 9.44068 30.1901C9.63212 30.7735 9.94629 31.3092 10.3621 31.761C10.7779 32.2128 11.2856 32.5702 11.8512 32.8094C12.4167 33.0485 13.0269 33.1639 13.6407 33.1474H27.252C27.8646 33.1618 28.4732 33.0451 29.037 32.805C29.6008 32.565 30.1068 32.2071 30.5211 31.7555C30.9353 31.3039 31.2482 30.7691 31.4388 30.1867C31.6294 29.6043 31.6933 28.9878 31.6263 28.3787Z" stroke="#E95322" stroke-width="1.29996" stroke-linecap="round" stroke-linejoin="round"/>
</svg>
