<svg width="41" height="41" viewBox="0 0 41 41" fill="none" xmlns="http://www.w3.org/2000/svg">
<rect y="0.324951" width="40.3" height="40.3" rx="15" fill="#F8F8F8"/>
<path d="M7.1499 24.4295V24.8614C7.1509 25.9177 7.57119 26.9305 8.31847 27.677C9.06574 28.4236 10.0789 28.8429 11.1352 28.8429H29.1647C30.221 28.8429 31.2341 28.4236 31.9813 27.677C32.7286 26.9305 33.1489 25.9177 33.1499 24.8614V15.0354C33.1499 14.512 33.0468 13.9938 32.8465 13.5102C32.6463 13.0267 32.3527 12.5874 31.9826 12.2173C31.6126 11.8473 31.1732 11.5537 30.6897 11.3534C30.2062 11.1531 29.688 11.05 29.1647 11.05H11.1352C10.6119 11.05 10.0936 11.1531 9.6101 11.3534C9.12659 11.5537 8.68725 11.8473 8.31719 12.2173C7.94712 12.5874 7.65353 13.0267 7.45325 13.5102C7.25298 13.9938 7.1499 14.512 7.1499 15.0354V24.3806M7.15741 15.3433H33.1386M10.8046 20.1625H12.9607M10.8046 23.8923H16.0182M22.8093 23.8923H24.9465M27.6284 23.8923H29.7656" stroke="#E95322" stroke-width="2" stroke-linecap="round" stroke-linejoin="round"/>
</svg>
