<svg width="41" height="41" viewBox="0 0 41 41" fill="none" xmlns="http://www.w3.org/2000/svg">
<rect y="0.324951" width="40.2987" height="40.2987" rx="12.9996" fill="#F8F8F8"/>
<path d="M25.0467 19.2028C24.8726 21.4347 24.2371 24.0393 23.804 26.2471C23.5327 27.6696 23.1158 29.1001 23.2534 30.5426C23.3546 31.6526 23.9173 33.1352 25.7712 33.1472C26.2596 33.1636 26.743 33.0457 27.1678 32.8066C27.5884 32.5129 27.8998 32.0905 28.0542 31.6045C28.2833 30.9334 28.3661 30.2219 28.2971 29.5168C28.1773 28.4179 27.9894 27.3273 27.7344 26.2511C27.3297 24.0433 26.6658 21.4227 26.4917 19.1908M13.2755 19.7358C13.1055 21.9116 12.4659 24.2677 12.0611 26.4234C11.794 27.8099 11.3851 29.2003 11.5187 30.6067C11.6199 31.6886 12.1704 33.1352 13.9879 33.1472C14.4676 33.1649 14.9429 33.0498 15.3601 32.8146C15.7733 32.5292 16.0794 32.1164 16.2304 31.6405C16.4559 30.9867 16.5373 30.2926 16.4692 29.605C16.3524 28.5339 16.1672 27.4713 15.9147 26.4234C15.5099 24.2677 14.8663 21.9116 14.7003 19.7358M9.74976 8.07139V15.6045C9.75295 16.7155 10.1999 17.7802 10.9932 18.5662C11.7864 19.3521 12.8615 19.7956 13.9838 19.7999C15.1069 19.7967 16.183 19.3537 16.9771 18.5676C17.7712 17.7815 18.2187 16.7162 18.222 15.6045V8.07139M12.5671 8.07139V13.3927M15.4573 8.07139V13.3927M30.1106 13.2084C30.1106 16.5544 28.1678 19.2669 25.7712 19.2669C23.3747 19.2669 21.4319 16.5544 21.4319 13.2084C21.4319 9.8623 23.3747 7.14978 25.7712 7.14978C28.1678 7.14978 30.1106 9.8623 30.1106 13.2084Z" stroke="#E95322" stroke-width="1.29996" stroke-linecap="round" stroke-linejoin="round"/>
</svg>
