<svg width="41" height="41" viewBox="0 0 41 41" fill="none" xmlns="http://www.w3.org/2000/svg">
<rect y="0.324951" width="40.3" height="40.3" rx="15" fill="#F8F8F8"/>
<path d="M28.932 21.5409L30.6356 22.5058C31.2557 22.8583 31.7082 23.4382 31.8938 24.1181C32.0793 24.7981 31.9828 25.5225 31.6254 26.1327L31.0221 27.1594C30.8445 27.4612 30.6081 27.7256 30.3265 27.9376C30.0449 28.1496 29.7235 28.3051 29.3807 28.395C29.038 28.485 28.6805 28.5077 28.3288 28.4619C27.9771 28.4161 27.6381 28.3027 27.331 28.1281L25.6353 27.1672C24.8943 27.7526 24.0655 28.2219 23.1785 28.5583V30.4957C23.1785 31.1997 22.8939 31.8747 22.3873 32.3725C21.8807 32.8702 21.1936 33.1499 20.4772 33.1499H19.2705C18.5541 33.1499 17.867 32.8702 17.3604 32.3725C16.8538 31.8747 16.5692 31.1997 16.5692 30.4957V28.5583C15.6821 28.2219 14.8534 27.7526 14.1124 27.1672L12.5074 28.0778C12.1882 28.2591 11.8358 28.3766 11.4704 28.4239C11.1049 28.4711 10.7334 28.4471 10.3774 28.3532C10.0214 28.2593 9.68773 28.0972 9.3955 27.8764C9.10326 27.6556 8.85819 27.3804 8.67434 27.0665L8.17746 26.2218C7.99276 25.9081 7.87279 25.5617 7.82436 25.2024C7.77593 24.8432 7.80001 24.4781 7.89522 24.128C7.99044 23.7779 8.1549 23.4496 8.37925 23.1619C8.60361 22.8743 8.88343 22.6329 9.20275 22.4516L10.8117 21.5409C10.654 20.6201 10.654 19.6798 10.8117 18.7589L9.20275 17.8482C8.88343 17.6669 8.60361 17.4255 8.37925 17.1379C8.1549 16.8502 7.99044 16.522 7.89522 16.1719C7.80001 15.8218 7.77593 15.4566 7.82436 15.0974C7.87279 14.7381 7.99276 14.3917 8.17746 14.078L8.67434 13.2334C8.85819 12.9194 9.10326 12.6442 9.3955 12.4234C9.68773 12.2026 10.0214 12.0405 10.3774 11.9466C10.7334 11.8527 11.1049 11.8287 11.4704 11.8759C11.8358 11.9232 12.1882 12.0408 12.5074 12.222L14.1124 13.1326C14.8534 12.5472 15.6821 12.0779 16.5692 11.7415V9.8041C16.5692 9.10015 16.8538 8.4251 17.3604 7.92733C17.867 7.42956 18.5541 7.1499 19.2705 7.1499H20.4772C21.1936 7.1499 21.8807 7.42956 22.3873 7.92733C22.8939 8.4251 23.1785 9.10015 23.1785 9.8041V11.7415C24.0655 12.0779 24.8943 12.5472 25.6353 13.1326L27.331 12.1717C27.6381 11.9971 27.9771 11.8837 28.3288 11.8379C28.6805 11.7921 29.038 11.8148 29.3807 11.9048C29.7235 11.9947 30.0449 12.1502 30.3265 12.3622C30.6081 12.5742 30.8445 12.8386 31.0221 13.1404L31.6254 14.1672C31.9828 14.7773 32.0793 15.5018 31.8938 16.1818C31.7082 16.8617 31.2557 17.4415 30.6356 17.794L28.932 18.7589C29.095 19.6793 29.095 20.6205 28.932 21.5409Z" stroke="#E95322" stroke-width="2" stroke-linecap="round" stroke-linejoin="round"/>
</svg>
