<svg width="26" height="26" viewBox="0 0 26 26" fill="none" xmlns="http://www.w3.org/2000/svg">
<rect width="26" height="26" rx="10" fill="white"/>
<path d="M7.78239 13.8485C8.5306 14.0787 9.30131 14.2363 10.0828 14.3192C11.7327 14.4905 13.3947 14.5309 15.0517 14.4397C17.2124 14.4929 19.345 13.9654 21.2053 12.918C21.4303 13.0657 21.6161 13.2613 21.7479 13.4894C21.8797 13.7174 21.9538 13.9715 21.9644 14.2315C22.1188 15.9843 21.7689 17.7441 20.9522 19.322M15.4313 22.9016C15.0977 22.9016 14.7526 22.9781 14.4076 23C13.798 23 13.1884 23 12.5788 23C9.92179 22.9234 7.06928 22.179 5.74655 19.7159C4.59635 17.6689 4.19376 14.8338 5.44749 12.7648M12.3602 13.2355C12.5149 13.0809 12.6231 12.8897 12.6737 12.6817C12.7243 12.4738 12.7153 12.2567 12.6478 12.0531C12.5762 11.8529 12.4554 11.672 12.2953 11.5253C12.1352 11.3787 11.9406 11.2706 11.7276 11.2102C10.9585 11.1185 10.1802 11.2894 9.53074 11.6921C8.57607 12.0752 7.44886 12.918 6.39067 12.9399C4.09026 12.9399 2.94008 8.34213 5.298 7.65247C5.55034 7.57297 5.82281 7.57259 6.07539 7.6514C6.32797 7.73022 6.54732 7.88424 6.70121 8.09051C7.16129 8.78016 7.02328 9.57916 7.75941 10.1484C8.10287 10.4063 8.49256 10.6029 8.90962 10.7286C9.62279 10.9628 10.3654 11.1065 11.118 11.1557M19.296 10.6519C18.5728 10.6852 17.8483 10.6189 17.1451 10.4549C16.7172 10.3649 16.3087 10.2058 15.9374 9.98425C15.1322 9.46975 15.1782 8.6377 14.6376 7.98088C14.4545 7.7859 14.211 7.65137 13.9424 7.5963C13.6737 7.54123 13.3936 7.56841 13.1424 7.67434C10.8419 8.61577 12.4638 13.2245 14.8562 12.9618C15.9259 12.8414 16.984 11.8671 17.9157 11.3745C18.5397 10.9031 19.3159 10.6515 20.1126 10.6628C20.337 10.7024 20.5481 10.7927 20.7282 10.9261C20.9084 11.0594 21.0522 11.2321 21.1478 11.4293C21.2405 11.6308 21.2734 11.8527 21.243 12.0707C21.2126 12.2888 21.12 12.4947 20.9752 12.6662C20.6816 13.0372 20.2983 13.3355 19.8578 13.5356C19.4173 13.7357 18.9326 13.8317 18.4448 13.8157C17.5376 13.6901 16.7148 13.2397 16.1444 12.5566M20.0436 19.5409C19.2984 19.7651 18.5243 19.8905 17.7431 19.9132C17.3145 19.9302 16.8861 19.8744 16.4779 19.7488C15.5808 19.4532 15.4198 18.6542 14.7411 18.1725C14.5253 18.0238 14.2657 17.9437 13.9992 17.9437C13.7328 17.9437 13.4732 18.0238 13.2574 18.1725C11.325 19.6066 14.0395 23.5802 16.2249 22.7702C17.2026 22.4089 17.9387 21.2376 18.6978 20.5808C19.2384 20.0991 19.7905 19.486 20.5842 19.3984C20.8025 19.3927 21.0194 19.4342 21.2185 19.5195C21.4177 19.6048 21.594 19.732 21.7344 19.8913C21.8701 20.0609 21.9555 20.2621 21.9818 20.4739C22.0081 20.6857 21.9743 20.9001 21.8839 21.0953C21.6998 21.5145 21.4124 21.8856 21.0461 22.1771C20.6798 22.4686 20.2452 22.672 19.779 22.7702C19.3344 22.8257 18.8825 22.7964 18.45 22.6836C18.0174 22.5708 17.6129 22.377 17.2601 22.1135M11.7506 4.1166C11.5135 4.70208 11.188 5.25154 10.7844 5.74768C10.5477 6.04967 10.2601 6.31251 9.9333 6.52514C9.19716 6.96301 8.53004 6.61271 7.77091 6.79881C7.5264 6.86908 7.31341 7.01458 7.16555 7.21279C7.01768 7.411 6.94333 7.65063 6.95424 7.8935C6.88523 10.0829 11.348 10.5206 12.0152 8.53919C12.1348 7.5336 12.0765 6.51603 11.8426 5.5288C11.6789 4.8555 11.76 4.14919 12.0727 3.52543C12.1878 3.36481 12.3421 3.23315 12.5224 3.14165C12.7026 3.05014 12.9035 3.00153 13.1078 3C13.3104 3.01038 13.5064 3.07172 13.6761 3.17746C13.8458 3.2832 13.983 3.42962 14.074 3.60213C14.2724 3.97936 14.3757 4.39552 14.3757 4.81736C14.3757 5.2392 14.2724 5.65508 14.074 6.03231C13.6456 6.71393 12.9507 7.20603 12.1417 7.40067" stroke="#E95322" stroke-linecap="round" stroke-linejoin="round"/>
</svg>
