<svg width="20" height="20" viewBox="0 0 20 20" fill="none" xmlns="http://www.w3.org/2000/svg">
<circle cx="10" cy="10" r="10" fill="#E95322"/>
<path d="M9.23086 8.46131H15.3847M9.23086 8.46131C9.23086 9.31098 8.54207 9.99977 7.6924 9.99977C6.84273 9.99977 6.15394 9.31098 6.15394 8.46131M9.23086 8.46131C9.23086 7.61164 8.54207 6.92285 7.6924 6.92285C6.84273 6.92285 6.15394 7.61164 6.15394 8.46131M4.61548 8.46131H6.15394M13.077 12.3075H15.3847M13.077 12.3075C13.077 13.1571 12.3882 13.8459 11.5386 13.8459C10.6889 13.8459 10.0001 13.1571 10.0001 12.3075M13.077 12.3075C13.077 11.4578 12.3882 10.769 11.5386 10.769C10.6889 10.769 10.0001 11.4578 10.0001 12.3075M4.61548 12.3075H10.0001" stroke="#F5F5F5" stroke-linecap="round" stroke-linejoin="round"/>
</svg>
