<svg width="41" height="41" viewBox="0 0 41 41" fill="none" xmlns="http://www.w3.org/2000/svg">
<rect y="0.324951" width="40.3" height="40.3" rx="15" fill="#F8F8F8"/>
<path d="M20.4692 15.9456C22.8981 15.9456 24.867 13.9766 24.867 11.5477C24.867 9.11888 22.8981 7.1499 20.4692 7.1499C18.0403 7.1499 16.0714 9.11888 16.0714 11.5477C16.0714 13.9766 18.0403 15.9456 20.4692 15.9456Z" stroke="#E95322" stroke-width="2" stroke-linecap="round" stroke-linejoin="round"/>
<path d="M28.5651 28.7911C26.4541 33.5329 20.4419 33.1421 20.4419 33.1421C20.4419 33.1421 14.4256 33.5173 12.3186 28.7911C11.9108 27.8819 11.7 26.8967 11.7 25.9003C11.7 24.9038 11.9108 23.9187 12.3186 23.0095C14.4256 18.2677 20.4419 18.6585 20.4419 18.6585C20.4419 18.6585 26.4541 18.2833 28.5651 23.0095C28.9729 23.9187 29.1837 24.9038 29.1837 25.9003C29.1837 26.8967 28.9729 27.8819 28.5651 28.7911Z" stroke="#E95322" stroke-width="2" stroke-linecap="round" stroke-linejoin="round"/>
</svg>
