<svg width="26" height="26" viewBox="0 0 26 26" fill="none" xmlns="http://www.w3.org/2000/svg">
<rect width="26" height="26" rx="10" fill="white"/>
<path d="M4.19832 9.59768L4.03792 9.32643C3.9253 9.13661 3.88499 8.91373 3.92415 8.69744C3.96332 8.48116 4.07943 8.28543 4.25179 8.14534L4.49239 7.94415C4.66916 7.80784 4.78692 7.61108 4.82209 7.39311L4.87555 7.08684C4.91325 6.87759 5.02171 6.68691 5.1834 6.54563C5.34509 6.40436 5.55056 6.32084 5.76664 6.30834H6.08743C6.31321 6.31458 6.53298 6.23641 6.70229 6.08964L6.94289 5.88845C7.11424 5.74826 7.33023 5.67145 7.55328 5.67145C7.77634 5.67145 7.99233 5.74826 8.16368 5.88845M16.1835 14.969C16.0072 15.3049 15.7086 15.5634 15.347 15.693C14.9854 15.8227 14.5874 15.8141 14.232 15.6689L13.7063 15.4765C13.3282 15.3478 12.917 15.3478 12.5389 15.4765L12.0043 15.6689C11.6445 15.8058 11.2468 15.8123 10.8826 15.6873C10.5184 15.5622 10.2116 15.3137 10.0172 14.9865M8.16369 6.06337L8.26171 5.51212C8.33107 5.12597 8.53726 4.77629 8.84382 4.52496C9.15038 4.27362 9.53757 4.13697 9.93696 4.13881H10.5073C10.9055 4.1372 11.2905 3.99763 11.5944 3.74496L12.031 3.38637C12.3379 3.1367 12.724 3 13.1226 3C13.5212 3 13.9073 3.1367 14.2142 3.38637L14.6508 3.74496C14.954 3.99896 15.3394 4.13871 15.738 4.13881H16.3083C16.7067 4.1404 17.0921 4.27849 17.398 4.52923C17.7038 4.77997 17.9109 5.12749 17.9835 5.51212L18.0815 6.06337C18.1453 6.45124 18.3513 6.80273 18.6607 7.05181L19.0885 7.41063C19.302 7.58226 19.4691 7.80299 19.5748 8.05329C19.6805 8.30358 19.7216 8.5756 19.6944 8.84524M6.55972 8.90654C6.52044 8.62868 6.55382 8.34553 6.6567 8.08383C6.75959 7.82213 6.9286 7.59052 7.14784 7.41063M7.81616 16.4211C7.81616 16.4211 10.8102 16.4211 10.9884 23.2185M12.4944 19.2643C12.138 16.2636 10.5073 15.5027 10.5073 15.5027M15.836 13.6655L15.7736 13.9978C15.7341 14.2272 15.7774 14.4631 15.8962 14.6644C16.015 14.8657 16.2018 15.0197 16.4241 15.1001L16.736 15.2052C16.9579 15.2901 17.1456 15.4437 17.2706 15.6426L17.431 15.9314C17.5529 16.1304 17.7405 16.2823 17.9627 16.362C18.1848 16.4416 18.4281 16.444 18.6518 16.3688L18.9726 16.2549C19.1943 16.1761 19.4371 16.1761 19.6588 16.2549L19.9796 16.3688C20.2019 16.4451 20.4443 16.443 20.6654 16.3632C20.8865 16.2834 21.0724 16.1309 21.1914 15.9314L21.3608 15.6426C21.4799 15.4421 21.6655 15.2877 21.8865 15.2052L22.2073 15.1001C22.4297 15.0197 22.6164 14.8657 22.7352 14.6644C22.854 14.4631 22.8973 14.2272 22.8578 13.9978L22.7954 13.6655C22.7512 13.4364 22.7957 13.1993 22.9202 13.0006L23.0806 12.7119C23.2008 12.5114 23.2444 12.2754 23.2036 12.0462C23.1628 11.8169 23.0402 11.6095 22.8578 11.4609L22.5994 11.251C22.4189 11.1016 22.2988 10.8937 22.2608 10.6649L22.1984 10.3411C22.1569 10.1124 22.0354 9.90522 21.8548 9.75509C21.6742 9.60496 21.4459 9.52138 21.2093 9.51887H20.8707C20.6332 9.52146 20.4025 9.4408 20.2202 9.29141L19.9617 9.0727C19.7806 8.92393 19.5519 8.84246 19.3157 8.84246C19.0795 8.84246 18.8508 8.92393 18.6697 9.0727L18.4112 9.29141C18.2281 9.43947 17.998 9.51995 17.7607 9.51887H17.4221C17.185 9.51968 16.9558 9.60252 16.7749 9.75295C16.5939 9.90338 16.4729 10.1117 16.433 10.3411L16.3706 10.6649C16.3327 10.8937 16.2125 11.1016 16.032 11.251L15.7736 11.4609M22.0202 9.59768L22.1806 9.32643C22.2932 9.13661 22.3335 8.91373 22.2943 8.69744C22.2552 8.48116 22.1391 8.28543 21.9667 8.14534L21.7261 7.94415C21.5571 7.80135 21.4411 7.6076 21.3964 7.39311L21.3429 7.08684C21.3067 6.87692 21.1987 6.68547 21.0367 6.54392C20.8747 6.40238 20.6684 6.31929 20.4519 6.30834H20.1311C19.9083 6.31236 19.6921 6.23433 19.5251 6.08964L19.2756 5.88845C19.1119 5.74337 18.8991 5.66291 18.6786 5.66291C18.458 5.66291 18.2453 5.74337 18.0815 5.88845M18.4023 16.4211C18.4023 16.4211 15.4083 16.4211 15.239 23.2185M13.7241 19.2643C14.0805 16.2636 15.7112 15.5027 15.7112 15.5027M7.55775 9.0727L7.81616 9.29141C7.99617 9.43885 8.22331 9.51938 8.45774 9.51887H8.79636C9.03405 9.52104 9.26357 9.60422 9.44563 9.75423C9.6277 9.90425 9.75099 10.1117 9.79438 10.3411L9.84785 10.6649C9.88966 10.8944 10.0128 11.102 10.1954 11.251L10.4538 11.4609C10.6347 11.6106 10.7561 11.8178 10.7969 12.0466C10.8376 12.2753 10.795 12.5109 10.6766 12.7119L10.5073 13.0006C10.3897 13.2018 10.3487 13.4374 10.3914 13.6655L10.4449 13.9978C10.4862 14.2274 10.4436 14.464 10.3246 14.6657C10.2056 14.8674 10.0178 15.0212 9.79438 15.1001L9.48249 15.2052C9.26144 15.2877 9.07588 15.4421 8.95675 15.6426L8.78744 15.9314C8.66684 16.1316 8.47929 16.2846 8.25671 16.3643C8.03413 16.4441 7.79028 16.4457 7.56665 16.3688L7.25477 16.2549C7.03003 16.1762 6.78445 16.1762 6.55971 16.2549L6.24784 16.3688C6.02422 16.4457 5.78036 16.4441 5.55778 16.3643C5.3352 16.2846 5.14764 16.1316 5.02703 15.9314L4.85774 15.6426C4.73862 15.4421 4.55304 15.2877 4.33198 15.2052L4.01119 15.1001C3.78945 15.0196 3.60365 14.8651 3.48635 14.6636C3.36904 14.462 3.32771 14.2263 3.3696 13.9978L3.42308 13.6655C3.46584 13.4374 3.42478 13.2018 3.30723 13.0006L3.13792 12.7119C3.0177 12.5114 2.9741 12.2754 3.01491 12.0462C3.05573 11.8169 3.1783 11.6095 3.3607 11.4609L3.61912 11.251C3.7989 11.0996 3.92135 10.8932 3.96665 10.6649L4.02011 10.3411C4.06351 10.1117 4.18679 9.90425 4.36886 9.75423C4.55093 9.60422 4.78045 9.52104 5.01813 9.51887H5.35675C5.59118 9.51938 5.81832 9.43885 5.99834 9.29141L6.25675 9.0727C6.44007 8.92484 6.66998 8.84396 6.90724 8.84396C7.1445 8.84396 7.37442 8.92484 7.55775 9.0727Z" stroke="#E95322" stroke-linecap="round" stroke-linejoin="round"/>
</svg>
